<svg width="247" height="34" viewBox="0 0 247 34" fill="none" xmlns="http://www.w3.org/2000/svg">
<path d="M18 33H34V30.414H26.723C24.1287 32.106 21.0973 33.0047 18 33ZM18 27.182C17.1431 27.1809 16.3217 26.8401 15.7158 26.2342C15.1099 25.6283 14.7691 24.8069 14.768 23.95C14.7685 23.0928 15.1091 22.2708 15.7151 21.6645C16.321 21.0582 17.1428 20.7171 18 20.716V13.282C17.1431 13.2809 16.3217 12.9401 15.7158 12.3342C15.1099 11.7283 14.7691 10.9069 14.768 10.05C14.7688 9.19297 15.1095 8.37126 15.7154 7.76515C16.3214 7.15905 17.143 6.81806 18 6.817V1C9.163 1 2 8.163 2 17C2 25.837 9.163 33 18 33V27.182ZM11.05 20.232C10.1931 20.2309 9.37169 19.8901 8.7658 19.2842C8.15991 18.6783 7.81906 17.8569 7.818 17C7.81906 16.1431 8.15991 15.3217 8.7658 14.7158C9.37169 14.1099 10.1931 13.7691 11.05 13.768C11.9072 13.7685 12.7292 14.1091 13.3355 14.7151C13.9418 15.321 14.2829 16.1428 14.284 17C14.2829 17.8569 13.9421 18.6783 13.3362 19.2842C12.7303 19.8901 11.9089 20.2309 11.052 20.232H11.05Z" fill="#E30B13"/>
<path d="M34 17C34 8.163 26.837 1 18 1V6.818C18.8569 6.81906 19.6783 7.15991 20.2842 7.7658C20.8901 8.37169 21.2309 9.19315 21.232 10.05C21.2315 10.9072 20.8909 11.7292 20.2849 12.3355C19.679 12.9418 18.8572 13.2829 18 13.284V20.718C18.857 20.7191 19.6786 21.0601 20.2846 21.6662C20.8905 22.2723 21.2312 23.094 21.232 23.951C21.2304 24.8075 20.8893 25.6285 20.2835 26.2339C19.6777 26.8394 18.8565 27.1799 18 27.181V33C21.218 33 24.214 32.05 26.723 30.414C31.103 27.56 34 22.618 34 17ZM24.95 13.768C25.8067 13.7693 26.6279 14.1103 27.2336 14.7162C27.8392 15.322 28.1799 16.1433 28.181 17C28.1799 17.8569 27.8391 18.6783 27.2332 19.2842C26.6273 19.8901 25.8059 20.2309 24.949 20.232C24.092 20.2312 23.2703 19.8905 22.6642 19.2846C22.058 18.6786 21.7171 17.857 21.716 17C21.7171 16.143 22.058 15.3214 22.6642 14.7154C23.2703 14.1095 24.092 13.7688 24.949 13.768H24.95Z" fill="#CE080F"/>
<path d="M56.804 9.264H52.778V14.852H48.026V9.264H44V24.664H48.026V18.482H52.778V24.664H56.804V9.264ZM63.002 12.784V24.664H66.896V12.784H70.658V9.264H59.218V12.784H63.002ZM80.547 15.908L74.52 9.22H73.068V24.664H77.094V17.8L80.35 21.232H80.79L84.068 17.8V24.664H88.094V9.22H86.686L80.547 15.908ZM95.955 9.264H91.995V24.664H101.543V21.122H95.955V9.264ZM108.18 9.264H104.22V24.664H113.768V21.122H108.18V9.264ZM126.08 9.264H116.466V24.664H126.278V21.166H120.382V18.46H125.618V14.962H120.382V12.784H126.08V9.264ZM132.386 19.956H128.58C128.492 26.732 141.032 26.556 141.032 20.088C141.032 16.238 138.04 15.842 134.982 15.512C133.596 15.358 132.452 15.116 132.54 13.95C132.672 12.124 136.808 11.948 136.808 13.994H140.548C140.636 7.35 128.668 7.35 128.8 13.994C128.844 17.338 131.044 18.482 134.388 18.724C135.928 18.812 137.204 18.988 137.204 20.066C137.204 21.87 132.386 21.914 132.386 19.956ZM146.651 19.956H142.845C142.757 26.732 155.297 26.556 155.297 20.088C155.297 16.238 152.305 15.842 149.247 15.512C147.861 15.358 146.717 15.116 146.805 13.95C146.937 12.124 151.073 11.948 151.073 13.994H154.813C154.901 7.35 142.933 7.35 143.065 13.994C143.109 17.338 145.309 18.482 148.653 18.724C150.193 18.812 151.469 18.988 151.469 20.066C151.469 21.87 146.651 21.914 146.651 19.956ZM173.039 16.986C173.039 6.338 157.243 6.338 157.243 16.986C157.243 27.656 173.039 27.656 173.039 16.986ZM161.291 16.986C161.291 11.442 169.013 11.442 169.013 16.986C169.013 22.574 161.291 22.574 161.291 16.986ZM187.835 24.686H189.243V9.264H185.217V16.81L177.429 9.198H175.999V24.664H180.069V17.096L187.835 24.686ZM195.894 19.956H192.088C192 26.732 204.54 26.556 204.54 20.088C204.54 16.238 201.548 15.842 198.49 15.512C197.104 15.358 195.96 15.116 196.048 13.95C196.18 12.124 200.316 11.948 200.316 13.994H204.056C204.143 7.35 192.176 7.35 192.308 13.994C192.352 17.338 194.552 18.482 197.896 18.724C199.436 18.812 200.712 18.988 200.712 20.066C200.712 21.87 195.894 21.914 195.894 19.956ZM223 9.264H216L213 24.686L216.678 24.664L217.599 20.132H221.52L222.285 24.664L226 24.686L224.5 17L223 9.264ZM220.52 16.6523H218.52V13.6523C219.444 13.6523 219.596 13.6303 220.52 13.6523C220.52 14.7025 220.52 14.9743 220.52 16.6523ZM235.028 21.342C233.884 21.342 232.674 20.726 232.674 19.472V9.264H228.912V19.538C228.912 22.926 231.882 24.884 235.028 24.884C238.196 24.884 241.166 22.926 241.166 19.538V9.264H237.36V19.472C237.36 20.726 236.172 21.342 235.028 21.342Z" fill="white"/>
<path d="M208.533 25.132C209.721 25.132 210.689 24.34 210.689 23.13C210.689 21.898 209.721 21.084 208.533 21.084C207.301 21.084 206.333 21.898 206.333 23.13C206.333 24.34 207.301 25.132 208.533 25.132Z" fill="#E30B13"/>
<path d="M246 4H239C238.448 4 238 4.48219 238 5.07692V7.5H247V5.07692C247 4.48219 246.552 4 246 4Z" fill="#005BBB"/>
<path d="M247 9.9232C247 10.5179 246.552 11.0001 246 11.0001H239C238.448 11.0001 238 10.5179 238 9.9232V7.50012H247V9.9232Z" fill="#FFD500"/>
</svg>
